<svg width="475" height="424" viewBox="0 0 475 424" fill="none" xmlns="http://www.w3.org/2000/svg">
<g clip-path="url(#clip0_619_66)">
<path d="M215.833 92.6711C188.348 74.8816 165.255 33.5064 158.792 10.6489C144.87 -38.5746 68.7364 93.9432 138.601 182.234C162.392 145.496 185.691 117.621 215.833 92.6711Z" fill="url(#paint0_linear_619_66)"/>
<path d="M196.761 271.366L88.8446 226.656C87.9707 226.321 87.198 225.766 86.6016 225.044C86.0051 224.323 85.6049 223.459 85.4398 222.538C85.2748 221.617 85.3504 220.669 85.6593 219.784C85.9682 218.901 86.5 218.112 87.2032 217.495C110.204 197.387 199.9 134.477 230.083 144.952C260.737 155.601 215.002 250.262 203.337 269.16C202.671 270.237 201.648 271.048 200.447 271.451C199.247 271.853 197.942 271.823 196.761 271.366Z" fill="#3C356C"/>
<path d="M47.3871 323.975C47.3871 323.975 65.9562 316.568 79.7445 286.016C98.406 244.692 135.801 161.551 177.371 123.736C226.81 78.7803 280.127 46.2792 325.483 81.222C345.929 96.9801 342.739 120.289 342.739 120.289C342.739 120.289 401.154 105.013 427.89 69.4445C427.89 69.4445 420.565 161.202 351.295 201.152C320.363 218.992 281.933 226.092 208.692 208.159C175.627 200.064 136.345 251.011 88.5879 298.87C67.2181 320.384 47.3871 323.975 47.3871 323.975Z" fill="url(#paint1_linear_619_66)"/>
<path d="M223.404 133.759L216.951 137.299L213.422 143.762L209.882 137.299L203.419 133.78L209.872 130.24L213.401 123.777L216.941 130.23L223.404 133.759Z" fill="url(#paint2_linear_619_66)"/>
<path d="M271.325 141.053L266.062 143.947L263.189 149.22L260.296 143.947L255.023 141.074L260.286 138.191L263.168 132.918L266.051 138.181L271.325 141.053Z" fill="url(#paint3_linear_619_66)"/>
<path d="M227.569 172.118L224.214 173.955L222.388 177.309L220.552 173.965L217.197 172.139L220.542 170.302L222.378 166.948L224.214 170.292L227.569 172.118Z" fill="url(#paint4_linear_619_66)"/>
<path d="M315.593 107.783L312.248 109.619L310.422 112.974L308.586 109.63L305.231 107.793L308.575 105.957L310.402 102.602L312.248 105.957L315.593 107.783Z" fill="url(#paint5_linear_619_66)"/>
<path d="M188.348 165.952L182.747 169.03L179.69 174.642L176.612 169.041L171 165.983L176.602 162.906L179.669 157.294L182.737 162.895L188.348 165.952Z" fill="url(#paint6_linear_619_66)"/>
<path d="M167.717 197.715L164.362 199.551L162.536 202.906L160.7 199.551L157.345 197.725L160.7 195.889L162.526 192.534L164.362 195.889L167.717 197.715Z" fill="url(#paint7_linear_619_66)"/>
<path d="M251.576 112.964L248.221 114.8L246.395 118.155L244.558 114.81L241.204 112.984L244.548 111.138L246.385 107.793L248.221 111.138L251.576 112.964Z" fill="url(#paint8_linear_619_66)"/>
<path d="M409.269 67.8233C448.49 21.1441 436.138 193.344 310.586 216.233C401.678 181.29 382.431 99.7499 409.269 67.8233Z" fill="#3C356C"/>
<path d="M109.64 362.539C108.909 362.516 108.182 362.64 107.501 362.903C106.819 363.166 106.196 363.562 105.67 364.067C105.14 364.59 104.726 365.219 104.453 365.911C104.181 366.604 104.057 367.345 104.09 368.089V398.805C104.113 401.333 103.354 403.805 101.915 405.884C100.427 408.019 98.4219 409.741 96.0875 410.89C93.4962 412.157 90.641 412.79 87.757 412.737C84.7095 412.788 81.6909 412.139 78.9341 410.839C76.3294 409.551 74.1815 407.496 72.7786 404.95C71.1443 401.855 70.3552 398.383 70.4908 394.886V368.089C70.523 367.339 70.4032 366.591 70.1385 365.888C69.8739 365.187 69.4699 364.546 68.9508 364.004C68.4318 363.462 67.8085 363.03 67.1184 362.736C66.4284 362.441 65.6858 362.29 64.9355 362.29C64.1851 362.29 63.4426 362.441 62.7525 362.736C62.0625 363.03 61.4391 363.462 60.9201 364.004C60.401 364.546 59.997 365.187 59.7324 365.888C59.4677 366.591 59.3479 367.339 59.3801 368.089V394.886C59.3801 400.905 60.5258 405.986 62.817 410.131C64.9326 414.128 68.1705 417.419 72.1323 419.6C76.2689 421.789 80.8926 422.894 85.5718 422.812C90.1148 422.873 94.5976 421.768 98.5907 419.6C100.607 418.497 102.458 417.116 104.09 415.497V416.677C104.116 417.774 104.461 418.841 105.084 419.747C105.705 420.652 106.577 421.357 107.593 421.775C108.609 422.194 109.724 422.309 110.803 422.105C111.882 421.901 112.879 421.387 113.672 420.626C114.177 420.1 114.573 419.477 114.836 418.795C115.099 418.114 115.223 417.387 115.2 416.656V368.089C115.243 367.348 115.13 366.606 114.865 365.912C114.601 365.219 114.193 364.589 113.668 364.064C113.142 363.54 112.511 363.133 111.817 362.87C111.123 362.607 110.381 362.494 109.64 362.539Z" fill="white"/>
<path d="M173.565 366.191C169.666 363.831 165.243 362.474 160.691 362.245C156.14 362.017 151.602 362.921 147.486 364.878C143.934 366.618 140.789 369.086 138.253 372.121V342.718C138.228 341.626 137.888 340.563 137.274 339.658C136.66 338.754 135.798 338.046 134.791 337.62C133.785 337.195 132.676 337.068 131.6 337.257C130.522 337.447 129.523 337.942 128.722 338.686C128.194 339.213 127.781 339.843 127.509 340.536C127.237 341.231 127.112 341.973 127.142 342.718V392.373C127.129 397.791 128.518 403.121 131.174 407.843C133.709 412.335 137.391 416.073 141.843 418.677C145.264 420.699 149.05 422.024 152.986 422.573C156.921 423.122 160.926 422.887 164.77 421.88C168.613 420.873 172.219 419.113 175.379 416.704C178.538 414.294 181.188 411.283 183.178 407.843C185.86 403.134 187.231 397.791 187.148 392.373C187.234 387.019 185.982 381.731 183.506 376.984C181.2 372.574 177.771 368.851 173.565 366.191ZM173.955 402.837C172.338 405.855 169.947 408.39 167.03 410.183C164.816 411.53 162.35 412.41 159.784 412.77C157.218 413.129 154.605 412.959 152.107 412.271C149.608 411.583 147.277 410.391 145.256 408.769C143.236 407.146 141.567 405.128 140.356 402.837C138.661 399.612 137.8 396.015 137.853 392.373C137.785 388.732 138.646 385.134 140.356 381.918C141.977 378.948 144.364 376.469 147.271 374.737C150.268 372.984 153.677 372.059 157.15 372.059C160.623 372.059 164.033 372.984 167.03 374.737C169.922 376.489 172.308 378.965 173.955 381.918C175.696 385.123 176.576 388.725 176.509 392.373C176.557 396.021 175.678 399.622 173.955 402.837Z" fill="white"/>
<path d="M239.603 365.965C235.185 363.37 230.127 362.069 225.004 362.211C219.667 362.109 214.402 363.445 209.759 366.078C205.374 368.607 201.773 372.299 199.356 376.748C196.78 381.587 195.488 387.005 195.601 392.485C195.496 397.956 196.867 403.354 199.572 408.11C202.189 412.615 205.998 416.31 210.58 418.79C214.632 420.934 219.082 422.223 223.652 422.576C228.224 422.929 232.818 422.339 237.151 420.842C240.483 419.791 243.607 418.17 246.384 416.051C246.939 415.685 247.39 415.182 247.693 414.59C247.997 413.999 248.144 413.339 248.118 412.676C248.056 411.975 247.849 411.294 247.512 410.676C247.174 410.058 246.714 409.517 246.159 409.085C245.236 408.294 244.048 407.883 242.835 407.936C241.556 407.977 240.323 408.414 239.306 409.187C237.552 410.429 235.622 411.4 233.581 412.07C231.366 412.886 229.027 413.313 226.666 413.332C222.824 413.405 219.03 412.463 215.668 410.603C212.543 408.856 209.949 406.296 208.159 403.196C206.933 401.082 206.112 398.758 205.737 396.343H247.144C247.802 396.363 248.459 396.254 249.075 396.02C249.692 395.786 250.255 395.432 250.734 394.978C251.197 394.538 251.562 394.006 251.805 393.415C252.049 392.825 252.166 392.19 252.15 391.552C252.258 386.308 251.159 381.11 248.939 376.358C246.9 372.061 243.656 368.451 239.603 365.965ZM214.417 374.296C217.632 372.414 221.311 371.473 225.035 371.577C228.2 371.444 231.333 372.259 234.031 373.919C236.729 375.579 238.869 378.008 240.178 380.893C241.175 383.005 241.829 385.263 242.117 387.582H205.83C206.183 385.568 206.808 383.61 207.687 381.765C209.158 378.675 211.496 376.079 214.417 374.296Z" fill="white"/>
<path d="M374.46 364.119C372.326 362.703 369.078 361.995 364.714 361.995C361.262 361.961 357.841 362.67 354.685 364.072C351.53 365.473 348.712 367.536 346.422 370.12V368.069C346.526 367.329 346.458 366.576 346.221 365.867C345.984 365.159 345.586 364.516 345.057 363.988C344.529 363.461 343.885 363.064 343.176 362.828C342.467 362.592 341.714 362.526 340.974 362.631C340.241 362.552 339.499 362.637 338.803 362.883C338.108 363.128 337.476 363.526 336.954 364.048C336.432 364.569 336.034 365.201 335.789 365.898C335.544 366.593 335.458 367.335 335.537 368.069V416.748C335.476 417.493 335.572 418.242 335.815 418.949C336.059 419.655 336.446 420.303 336.952 420.852C337.5 421.333 338.137 421.7 338.828 421.935C339.517 422.169 340.247 422.265 340.974 422.217C341.719 422.277 342.468 422.183 343.175 421.938C343.881 421.695 344.529 421.308 345.078 420.801C345.559 420.251 345.927 419.613 346.161 418.92C346.395 418.229 346.49 417.497 346.442 416.769V384.965C346.39 383.44 346.647 381.919 347.199 380.497C347.751 379.074 348.586 377.778 349.653 376.686C352.075 374.368 355.126 372.814 358.425 372.224C362.568 371.428 366.829 371.501 370.941 372.439C371.797 372.652 372.686 372.691 373.557 372.552C374.345 372.41 375.08 372.055 375.681 371.526C376.342 370.903 376.782 370.082 376.933 369.187C377.394 367.217 376.573 365.535 374.46 364.119Z" fill="white"/>
<path d="M421.078 391.285C416.987 389.324 412.644 387.943 408.172 387.181C405.13 386.632 402.142 385.811 399.246 384.729C397.63 384.209 396.202 383.224 395.142 381.898C394.452 380.848 394.095 379.614 394.117 378.359C394.117 376.258 395.225 374.662 397.441 373.567C399.982 372.41 402.755 371.852 405.545 371.936C408.015 371.898 410.477 372.227 412.85 372.911C415.064 373.634 417.078 374.868 418.728 376.512C419.849 377.544 421.247 378.225 422.75 378.471C423.451 378.624 424.175 378.636 424.88 378.503C425.585 378.371 426.255 378.098 426.854 377.702C427.387 377.344 427.83 376.868 428.15 376.311C428.47 375.755 428.658 375.132 428.7 374.491C428.72 373.82 428.604 373.152 428.361 372.526C428.118 371.901 427.751 371.331 427.284 370.849C424.929 368.031 421.897 365.856 418.472 364.529C414.416 362.937 410.086 362.159 405.73 362.241C402.094 362.233 398.484 362.84 395.05 364.037C391.837 365.108 388.952 366.983 386.668 369.484C384.449 372.037 383.283 375.337 383.406 378.718C383.383 380.753 383.817 382.768 384.675 384.614C385.532 386.46 386.791 388.09 388.361 389.387C391.651 392.294 396.969 394.473 404.314 395.922C409.977 396.941 413.879 398.248 416.02 399.841C418.161 401.434 419.187 403.322 419.098 405.504C419.041 406.615 418.694 407.692 418.094 408.627C417.493 409.563 416.658 410.325 415.671 410.839C413.455 412.207 410.244 412.891 406.038 412.891C402.912 412.936 399.812 412.325 396.938 411.096C394.715 410.232 392.695 408.914 391.008 407.228C390.057 406.177 388.761 405.5 387.356 405.32C386.576 405.258 385.792 405.358 385.053 405.612C384.314 405.865 383.634 406.27 383.057 406.797C382.465 407.219 381.97 407.761 381.603 408.389C381.238 409.017 381.009 409.716 380.934 410.439C380.838 411.162 380.91 411.897 381.145 412.587C381.38 413.278 381.771 413.905 382.288 414.42C385.175 417.105 388.613 419.129 392.362 420.349C396.915 421.95 401.714 422.738 406.54 422.678C410.964 422.823 415.367 422.007 419.446 420.288C422.609 418.923 425.325 416.698 427.284 413.866C429.057 411.187 429.987 408.039 429.952 404.827C430.013 402.123 429.302 399.457 427.9 397.143C426.187 394.618 423.832 392.596 421.078 391.285Z" fill="white"/>
<path d="M472.692 412.85C472.287 412.367 471.779 411.979 471.206 411.714C470.633 411.451 470.009 411.316 469.378 411.321H465.674C464.534 411.326 463.407 411.063 462.386 410.554C461.366 410.044 460.478 409.302 459.796 408.387C458.158 406.317 457.307 403.732 457.395 401.093V374.193H466.629C467.987 374.252 469.314 373.781 470.332 372.88C470.79 372.471 471.153 371.967 471.397 371.404C471.641 370.841 471.761 370.231 471.748 369.618C471.777 368.968 471.666 368.321 471.421 367.719C471.176 367.116 470.805 366.575 470.332 366.13C469.313 365.231 467.986 364.764 466.629 364.827H457.395V349.14C457.427 348.406 457.31 347.672 457.051 346.984C456.792 346.295 456.396 345.668 455.887 345.136C455.379 344.605 454.768 344.182 454.092 343.894C453.416 343.606 452.688 343.457 451.953 343.457C451.217 343.457 450.49 343.606 449.814 343.894C449.138 344.182 448.526 344.605 448.018 345.136C447.51 345.668 447.114 346.295 446.855 346.984C446.596 347.672 446.479 348.406 446.51 349.14V364.827H441.494C440.137 364.766 438.81 365.233 437.79 366.13C437.317 366.575 436.946 367.116 436.702 367.719C436.457 368.321 436.346 368.968 436.374 369.618C436.361 370.231 436.481 370.841 436.725 371.404C436.969 371.967 437.332 372.471 437.79 372.88C438.808 373.781 440.135 374.251 441.494 374.193H446.51V401.134C446.451 404.878 447.311 408.581 449.014 411.916C450.582 415.003 452.948 417.614 455.867 419.477C458.796 421.339 462.204 422.306 465.674 422.258H467.634C469.31 422.326 470.955 421.783 472.261 420.729C472.839 420.256 473.302 419.657 473.613 418.978C473.925 418.299 474.076 417.557 474.056 416.81C474.125 415.363 473.637 413.947 472.692 412.85Z" fill="white"/>
<path d="M314.423 335.27C312.46 335.147 310.521 335.77 308.996 337.014C307.761 338.418 307.079 340.223 307.079 342.092C307.079 343.962 307.761 345.767 308.996 347.171C310.574 348.343 312.489 348.976 314.454 348.976C316.42 348.976 318.334 348.343 319.912 347.171C321.112 345.751 321.77 343.951 321.77 342.092C321.77 340.233 321.112 338.434 319.912 337.014C318.372 335.753 316.409 335.129 314.423 335.27Z" fill="white"/>
<path d="M314.177 362.816H279.829V359.738C279.829 355.111 280.906 351.531 283.03 349.12C285.154 346.709 288.591 345.314 293.228 345.016L296.562 344.77C296.977 344.741 297.383 344.627 297.753 344.437C298.123 344.247 298.451 343.983 298.716 343.662C299.328 342.958 299.761 342.117 299.978 341.21C300.215 340.289 300.172 339.317 299.855 338.42C299.546 337.52 298.918 336.764 298.091 336.296C297.022 335.752 295.806 335.565 294.623 335.762L290.909 336.009C283.338 336.747 277.521 339.22 273.622 343.364C269.724 347.509 267.744 353.624 267.744 361.513V362.816H260.634C259.333 362.743 258.053 363.169 257.054 364.006C256.605 364.453 256.257 364.991 256.034 365.584C255.811 366.177 255.718 366.811 255.761 367.443C255.73 368.067 255.83 368.69 256.055 369.274C256.278 369.857 256.623 370.386 257.064 370.828C258.045 371.695 259.327 372.14 260.634 372.07H267.764V417.467C267.678 418.291 267.778 419.125 268.053 419.908C268.329 420.69 268.775 421.401 269.359 421.99C269.942 422.58 270.65 423.031 271.43 423.313C272.21 423.595 273.043 423.701 273.869 423.622C277.901 423.622 279.85 421.622 279.85 417.467V372.07H308.186V416.851C308.078 418.614 308.634 420.352 309.745 421.724C310.313 422.318 311.005 422.781 311.77 423.08C312.536 423.38 313.356 423.508 314.177 423.458C315.025 423.527 315.878 423.407 316.675 423.107C317.471 422.807 318.191 422.336 318.783 421.724C319.856 420.335 320.389 418.603 320.281 416.851V369.33C320.375 367.605 319.819 365.906 318.722 364.57C318.136 363.967 317.426 363.498 316.641 363.195C315.857 362.893 315.016 362.764 314.177 362.816Z" fill="white"/>
<path d="M47.7053 413.978L25.2582 386.279L46.6384 367.104C47.1711 366.678 47.6055 366.143 47.9118 365.534C48.2182 364.924 48.3892 364.256 48.4132 363.575C48.4226 362.884 48.2942 362.197 48.0353 361.556C47.7763 360.915 47.3921 360.332 46.9051 359.841C46.4841 359.3 45.9497 358.859 45.3397 358.547C44.7296 358.235 44.0588 358.062 43.3742 358.037C42.6896 358.013 42.008 358.139 41.3774 358.405C40.7466 358.673 40.1822 359.075 39.7237 359.584L10.998 385.232V337.814C11.0237 337.084 10.9015 336.355 10.6389 335.673C10.3763 334.991 9.97841 334.368 9.46932 333.844C8.94547 333.333 8.3237 332.933 7.64141 332.669C6.95911 332.405 6.23038 332.28 5.49902 332.305C4.76747 332.273 4.03724 332.393 3.35486 332.659C2.67248 332.925 2.05291 333.33 1.53561 333.848C1.01831 334.366 0.614614 334.987 0.350247 335.669C0.0858803 336.352 -0.0333656 337.083 0.000105125 337.814V416.523C-0.0351803 417.255 0.0832457 417.987 0.347763 418.671C0.612279 419.354 1.01703 419.975 1.53596 420.493C2.05489 421.011 2.67653 421.414 3.36083 421.678C4.04515 421.942 4.777 422.059 5.50928 422.022C6.23991 422.047 6.96821 421.925 7.65046 421.663C8.33273 421.4 8.95488 421.002 9.47958 420.493C9.98867 419.969 10.3865 419.346 10.6492 418.664C10.9118 417.982 11.034 417.253 11.0082 416.523V399.082L17.3279 393.409L39.3646 420.626C39.7924 421.204 40.3369 421.685 40.9625 422.038C41.5881 422.392 42.281 422.609 42.9964 422.678C43.15 422.688 43.3042 422.688 43.458 422.678C44.747 422.667 45.9916 422.206 46.9769 421.375C47.5405 420.938 48.012 420.395 48.3642 419.775C48.7164 419.155 48.9422 418.472 49.0288 417.764C49.0854 417.076 48.9968 416.383 48.7689 415.731C48.5409 415.078 48.1786 414.481 47.7053 413.978Z" fill="white"/>
</g>
<defs>
<linearGradient id="paint0_linear_619_66" x1="139.699" y1="-3.12914" x2="177.248" y2="169.205" gradientUnits="userSpaceOnUse">
<stop offset="0.11" stop-color="#7AA5E2"/>
<stop offset="0.15" stop-color="#749AD7"/>
<stop offset="0.33" stop-color="#5C6FA9"/>
<stop offset="0.48" stop-color="#4B4F88"/>
<stop offset="0.61" stop-color="#403C73"/>
<stop offset="0.7" stop-color="#3C356C"/>
</linearGradient>
<linearGradient id="paint1_linear_619_66" x1="47.4589" y1="265.384" x2="388.874" y2="92.661" gradientUnits="userSpaceOnUse">
<stop stop-color="#D0BAE9"/>
<stop offset="0.08" stop-color="#B3A0D1"/>
<stop offset="0.26" stop-color="#73679B"/>
<stop offset="0.4" stop-color="#4B4379"/>
<stop offset="0.47" stop-color="#3C356C"/>
<stop offset="0.65" stop-color="#3C356C"/>
<stop offset="0.72" stop-color="#3E3870"/>
<stop offset="0.78" stop-color="#44437A"/>
<stop offset="0.84" stop-color="#4D548D"/>
<stop offset="0.9" stop-color="#5B6CA6"/>
<stop offset="0.96" stop-color="#6C8BC7"/>
<stop offset="1" stop-color="#7AA5E2"/>
</linearGradient>
<linearGradient id="paint2_linear_619_66" x1="203.419" y1="133.769" x2="223.404" y2="133.769" gradientUnits="userSpaceOnUse">
<stop stop-color="white"/>
<stop offset="1" stop-color="#D0BAE9"/>
</linearGradient>
<linearGradient id="paint3_linear_619_66" x1="255.023" y1="141.064" x2="271.325" y2="141.064" gradientUnits="userSpaceOnUse">
<stop stop-color="white"/>
<stop offset="1" stop-color="#D0BAE9"/>
</linearGradient>
<linearGradient id="paint4_linear_619_66" x1="217.197" y1="172.129" x2="227.569" y2="172.129" gradientUnits="userSpaceOnUse">
<stop stop-color="white"/>
<stop offset="1" stop-color="#D0BAE9"/>
</linearGradient>
<linearGradient id="paint5_linear_619_66" x1="305.231" y1="107.793" x2="315.593" y2="107.793" gradientUnits="userSpaceOnUse">
<stop stop-color="white"/>
<stop offset="1" stop-color="#D0BAE9"/>
</linearGradient>
<linearGradient id="paint6_linear_619_66" x1="171" y1="165.963" x2="188.348" y2="165.963" gradientUnits="userSpaceOnUse">
<stop stop-color="white"/>
<stop offset="1" stop-color="#D0BAE9"/>
</linearGradient>
<linearGradient id="paint7_linear_619_66" x1="157.345" y1="197.725" x2="167.717" y2="197.725" gradientUnits="userSpaceOnUse">
<stop stop-color="white"/>
<stop offset="1" stop-color="#D0BAE9"/>
</linearGradient>
<linearGradient id="paint8_linear_619_66" x1="241.204" y1="112.974" x2="251.565" y2="112.974" gradientUnits="userSpaceOnUse">
<stop stop-color="white"/>
<stop offset="1" stop-color="#D0BAE9"/>
</linearGradient>
<clipPath id="clip0_619_66">
<rect width="475" height="423.704" fill="white"/>
</clipPath>
</defs>
</svg>
